<?xml version="1.0" encoding="UTF-8" standalone="no"?>
<!-- Created with Inkscape (http://www.inkscape.org/) -->

<svg
   xmlns:dc="http://purl.org/dc/elements/1.1/"
   xmlns:cc="http://creativecommons.org/ns#"
   xmlns:rdf="http://www.w3.org/1999/02/22-rdf-syntax-ns#"
   xmlns:svg="http://www.w3.org/2000/svg"
   xmlns="http://www.w3.org/2000/svg"
   xmlns:sodipodi="http://sodipodi.sourceforge.net/DTD/sodipodi-0.dtd"
   xmlns:inkscape="http://www.inkscape.org/namespaces/inkscape"
   width="147.88168mm"
   height="165.0518mm"
   viewBox="0 0 147.88168 165.0518"
   version="1.1"
   id="svg8"
   inkscape:version="0.92.3 (2405546, 2018-03-11)"
   sodipodi:docname="coriander-logo.svg">
  <defs
     id="defs2" />
  <sodipodi:namedview
     id="base"
     pagecolor="#ffffff"
     bordercolor="#666666"
     borderopacity="1.0"
     inkscape:pageopacity="0.0"
     inkscape:pageshadow="2"
     inkscape:zoom="0.35"
     inkscape:cx="741.5309"
     inkscape:cy="356.30144"
     inkscape:document-units="mm"
     inkscape:current-layer="layer1"
     showgrid="false"
     inkscape:window-width="1920"
     inkscape:window-height="1055"
     inkscape:window-x="1920"
     inkscape:window-y="0"
     inkscape:window-maximized="1"
     fit-margin-top="0"
     fit-margin-left="0"
     fit-margin-right="0"
     fit-margin-bottom="0" />
  <metadata
     id="metadata5">
    <rdf:RDF>
      <cc:Work
         rdf:about="">
        <dc:format>image/svg+xml</dc:format>
        <dc:type
           rdf:resource="http://purl.org/dc/dcmitype/StillImage" />
        <dc:title></dc:title>
      </cc:Work>
    </rdf:RDF>
  </metadata>
  <g
     inkscape:label="Ebene 1"
     inkscape:groupmode="layer"
     id="layer1"
     transform="translate(-44.371391,-79.756799)">
    <path
       id="path4595"
       style="fill:#006500;fill-opacity:1;stroke:#006500;stroke-width:1.06500006;stroke-linecap:round;stroke-linejoin:round;stroke-miterlimit:3.5999999;stroke-dasharray:none;stroke-opacity:1;paint-order:stroke fill markers"
       d="m 113.99045,139.51143 c 0,0 0.93806,-1.74801 1.80407,-3.00679 1.36226,-1.98011 2.47225,-4.81085 2.47225,-4.81085 0,0 1.51619,2.91381 2.00452,4.2095 0.64415,1.70912 0.47809,3.77873 1.20271,5.21176 0.49339,0.97574 1.30927,1.42483 1.67043,2.27179 0.28816,0.67578 0.8566,1.47785 0.53454,2.13815 -0.28849,0.59147 -1.14818,0.85544 -1.80407,0.80181 -0.92968,-0.076 -1.63378,-0.9258 -2.3386,-1.5368 -0.96574,-0.83719 -1.57955,-2.02883 -2.53906,-2.87315 -0.56579,-0.49786 -1.29002,-0.78933 -1.87089,-1.26952 -0.41271,-0.34117 -1.1359,-1.1359 -1.1359,-1.1359 z m 67.75814,-59.221758 c -0.90034,0.01715 -2.06781,0.585782 -2.58795,1.736328 -2.21929,4.908991 -10.48877,20.22202 -10.48877,20.22202 0,0 3.20088,-13.724428 -0.37775,-16.914729 -0.51565,-0.459692 -1.86842,-1.497078 -1.89033,0.850596 -0.1197,12.835916 -2.76888,26.454783 -17.61959,41.987613 -2.61285,2.73287 -2.34267,-6.88685 -1.37356,-10.42675 1.55036,-5.66302 4.30154,-9.51087 5.83117,-14.41359 0.67401,-2.16033 0.40005,-7.786439 -1.1064,-6.374805 -2.56283,2.401528 -1.29367,4.588535 -3.25664,8.361765 -1.44488,2.77736 -3.96204,7.44714 -4.77542,6.20634 -3.01953,-4.60622 3.26292,-19.531926 -1.70068,-25.624278 -0.39272,-0.482042 -1.48784,0.118282 -1.73374,0.689364 -0.49844,1.157571 -0.46617,2.586239 -0.43977,3.846277 0.039,1.85824 0.17407,3.718422 0.0946,5.575369 -0.17447,4.074398 -1.49677,8.230138 -0.47232,13.418308 0.15107,0.76508 -0.97388,-1.24533 -1.60662,-1.70119 -0.78894,-0.56839 -1.6899,-1.05034 -2.64583,-1.22835 -0.7395,-0.13771 -1.91494,-0.42734 -2.25155,0.14986 -0.39189,0.67201 1.13341,1.74087 1.58544,2.37401 0.78513,1.09968 1.65914,1.50537 2.62258,2.55592 0.8506,0.9275 1.57519,2.28333 2.36264,3.29127 0.48121,0.61594 0.8895,1.44369 0.72244,2.29547 -0.12524,0.63856 -1.17169,-0.99266 -1.73426,-1.59525 -0.73019,-0.78213 -1.34147,-1.68937 -2.17351,-2.36213 -1.10897,-0.89668 -2.36542,-1.63275 -3.68505,-2.17351 -0.96137,-0.39395 -1.62342,-0.74553 -3.0241,-0.75603 -0.52452,-0.004 -1.57449,0.86302 -0.36639,1.84123 3.06628,2.48279 6.23967,3.83787 8.54832,7.03006 1.53563,2.12335 3.74522,4.14902 4.64674,6.63733 0.61046,1.68508 0.80597,3.33122 0.55035,5.17436 -0.29851,2.15232 -0.93903,4.28603 -1.95646,6.3748 -0.95733,1.96535 -2.25088,4.16679 -3.67368,5.82652 -1.18865,1.38659 -2.45762,2.72142 -3.87418,3.87418 -0.9351,0.76095 -1.85045,1.70875 -3.02411,1.98438 -0.7721,0.18132 -1.85503,0.32609 -2.36213,-0.28371 -0.90712,-1.09083 0.0811,-2.99196 0.27182,-4.24728 0.32206,-2.11962 0.968,-4.20015 1.20096,-6.3314 0.25347,-2.31896 0.16313,-4.20575 0.41703,-6.52467 0.27168,-2.48127 1.29181,-4.8747 1.32291,-7.3706 0.0207,-1.65705 0.16804,-3.53779 -0.75602,-4.9134 -0.40966,-0.60983 -1.20495,-1.40015 -1.88981,-1.1343 -1.1427,0.44358 -0.81161,2.31785 -1.0511,3.52433 -0.34784,1.75235 -0.38381,3.59176 -0.65009,5.35833 -0.37045,2.45763 -0.15453,3.90563 -1.03921,7.18303 -0.23385,0.86631 -1.24105,2.41386 -1.70067,3.32951 -0.55799,1.11154 0.0182,2.41385 -0.5395,3.69176 -0.41883,0.95962 -0.99024,-2.23052 -1.25626,-3.24321 -0.44478,-1.69317 -0.59616,-3.45379 -0.75602,-5.1971 -0.22448,-2.44839 0.0142,-4.92999 -0.28319,-7.37061 -0.22561,-1.85188 -0.79633,-3.64548 -1.13378,-5.48028 -0.40068,-2.17859 -1.92858,-3.12738 -2.83497,-4.72478 -0.49376,-0.8702 -0.7972,-1.86078 -1.41748,-2.64583 -1.14815,-1.45312 -2.69975,-2.5438 -4.15789,-3.68556 -1.02553,-0.80301 -1.98894,-1.36648 -3.21738,-2.21692 -1.24149,-0.8595 -3.7651,0.41764 -0.84594,2.12235 1.49276,1.44821 3.71093,2.04579 5.10305,3.59099 1.03822,1.15239 1.54256,2.69209 2.26756,4.06332 0.95469,1.80567 2.04663,3.55972 2.7404,5.4808 0.70005,1.93847 1.40663,6.02083 1.40663,6.02083 0,0 -0.31862,0.12268 -0.70331,0.11368 -0.42244,-0.01 -0.76946,0.29714 -0.76946,0.29714 0,0 -0.9716,-1.81261 -1.44591,-2.4629 -0.89403,-1.22574 -2.00015,-2.28191 -3.02359,-3.40186 -0.96205,-1.05277 -1.66554,-2.45823 -2.92954,-3.11867 -1.06947,-0.55882 -3.05562,-1.26941 -3.58117,-0.52762 -0.86175,1.2163 1.99441,1.70036 3.06958,3.252 0.81344,1.17393 1.99717,1.89879 2.96881,2.94556 0.67639,0.72869 1.41586,1.2129 2.08359,2.13424 0.46358,0.63964 1.21181,2.03966 1.21181,2.03966 0,0 -2.46331,1.99069 -3.5791,3.10214 -1.14704,1.14258 -2.92954,3.87418 -2.92954,3.87418 0,0 -1.44943,-1.41417 -2.36213,-1.79524 -1.09338,-0.45655 -2.66212,-1.11796 -3.51917,-0.50022 -0.54205,0.39068 -0.58376,1.4698 -0.21652,2.05103 0.40773,0.64531 1.38071,0.96087 2.07894,1.36219 1.46955,0.84465 2.56936,1.67794 2.56936,1.67794 l -1.19632,2.59054 c 0,0 -1.53674,6.19118 -3.02358,8.97671 -0.24326,0.45574 -0.6271,1.63543 -0.94517,1.22835 -1.09878,-1.40632 -0.52342,-2.95319 -0.47232,-4.44107 0.042,-1.22406 0.52232,-2.34736 0.63872,-3.61839 0.15968,-1.74335 0.24304,-3.40049 -0.0832,-5.29631 -0.24243,-1.40873 -0.62144,-3.27254 -1.0325,-4.64158 -0.20305,-0.67629 -1.98391,-1.09107 -2.50734,0.23771 -0.544537,1.38237 -0.581058,3.42461 -0.511596,4.90874 0.09369,2.00188 1.104316,3.33804 1.067116,5.91695 -0.0208,1.43949 -0.28482,4.60767 -0.689363,5.9893 -0.602649,2.05824 -1.387094,4.50389 -2.468065,5.94176 -0.364083,0.48431 -1.17239,0.3507 -1.595252,-0.0832 -0.842576,-0.86458 -0.533284,-2.38478 -0.472324,-3.59048 0.117671,-2.32724 1.267886,-4.49818 1.606103,-6.80372 0.384712,-2.62245 0.333306,-5.29066 0.47284,-7.9375 0.148992,-2.82623 0.07128,-5.17763 0.389125,-8.48165 0.139462,-1.44973 1.171035,-3.027 1.406115,-4.46433 0.142547,-0.87157 0.693534,-2.31363 -0.138494,-2.64583 -1.27735,-0.51 -2.87561,1.18087 -3.657658,2.44533 -0.927788,1.5001 -0.975029,3.56526 -1.173054,5.41414 -0.258373,2.41237 -0.432191,4.99381 -0.322461,7.54321 0.07084,1.64575 0.250785,3.11618 -0.783415,4.87929 -0.762389,1.29973 -1.775653,-3.89394 -2.713011,-6.10764 -0.86296,-2.03799 -1.878775,-4.00914 -2.740404,-6.04769 -0.368903,-0.8728 -0.658592,-1.77808 -1.039211,-2.64584 -1.505181,-3.43161 -2.501125,-7.24396 -4.913913,-10.11101 -1.249561,-1.48482 -3.213339,-2.18346 -4.724258,-3.40134 -1.319709,-1.06375 -2.326965,-2.52922 -3.780131,-3.40186 -0.948195,-0.5694 -2.595975,-2.1093 -3.118157,-1.1343 0,0 0.06245,2.67094 0.566891,3.8747 0.503995,1.2027 1.475605,2.1623 2.362648,3.11816 1.457272,1.57033 3.499641,2.56394 4.818827,4.25193 1.136422,1.45413 1.66955,3.29264 2.551263,4.91391 1.004194,1.84649 1.873456,3.78748 3.118673,5.48081 0.521036,0.70854 1.341109,1.08107 1.799891,1.92908 0.331092,0.612 1.257562,1.59403 0.656807,1.9451 -0.958019,0.55985 -1.832186,-1.25234 -2.7404,-1.88981 -1.10889,-0.77833 -2.30082,-1.45575 -3.307292,-2.36264 -0.812287,-0.73191 -1.283496,-1.82158 -2.173512,-2.4567 -1.137987,-0.81208 -2.556262,-1.14017 -3.87418,-1.60662 -1.362329,-0.48217 -2.717848,-1.35562 -4.157369,-1.22835 -0.631426,0.0558 -1.897409,0.4306 -1.767853,1.0511 0.323236,1.54812 2.077534,2.29557 3.373956,3.20135 1.329174,0.92867 3.115685,1.05031 4.441071,1.98438 0.819457,0.57751 1.358101,1.4768 2.078945,2.17351 1.659919,1.60435 3.190115,3.41831 5.165058,4.61367 1.445723,0.87504 2.375887,0.81477 3.134175,1.45676 1.601292,1.3557 2.321308,2.9131 3.418398,4.70152 0.838845,1.36745 1.496118,2.55455 2.200896,4.27984 0.512332,1.25418 0.979657,3.22482 -0.0279,4.1305 -0.282077,0.25356 -0.80832,0.10019 -1.133781,-0.0946 -1.191999,-0.71332 -1.445562,-2.37698 -2.26808,-3.49643 -0.847715,-1.15373 -1.517626,-2.56176 -2.739882,-3.30729 -1.376675,-0.83972 -3.160501,-1.43087 -4.724779,-1.03921 -1.778375,0.44526 -5.206859,-0.57863 -4.063317,0.75551 1.764813,2.05895 5.516621,2.82213 7.9375,4.72478 1.768737,1.39011 3.282598,3.0928 4.724776,4.81934 0.593881,0.71098 1.207987,1.4316 1.606105,2.26808 0.604306,1.26969 0.901473,2.67604 1.134298,4.0628 0.172416,1.02697 -0.312928,1.75659 -0.145211,2.78432 0.136596,0.83705 1.172569,1.43291 0.928624,2.39004 -0.135859,0.53304 -1.014106,0.0817 -1.444871,-0.26045 -1.771947,-1.40726 -2.43689,-3.93952 -4.058669,-5.44153 -1.943939,-1.80038 -4.100145,-2.84482 -6.524665,-3.91345 -2.807496,-1.23743 -5.695796,-2.37023 -8.693528,-3.02359 -2.936766,-0.64007 -5.98061,-0.61698 -8.977228,-0.8506 -1.541615,-0.12017 -3.127165,0.0795 -4.630208,-0.2837 -1.879354,-0.45408 -3.438279,-1.10069 -5.312338,-2.32751 -1.371333,-0.89771 -2.686214,-0.98977 -5.121135,-1.21232 -1.514568,-0.13844 -2.684399,3.70543 -0.834057,2.98431 1.09828,-0.42802 2.651337,0.13859 3.846277,0.59479 1.281989,0.48945 2.567779,1.50312 3.830773,2.03967 1.999046,0.84926 3.721846,1.23421 6.317445,1.59526 0.842579,0.1172 2.402631,0.27361 3.885549,0.31781 2.027995,0.0605 2.271758,0.48367 1.891874,0.73277 -1.194085,0.783 -3.196862,1.40808 -4.916495,3.21789 -0.710462,0.74772 -2.32492,1.84507 -2.986381,3.23546 -1.01555,2.1347 -1.517526,4.40975 -1.132229,5.89783 0.320606,1.23823 1.224074,1.57753 2.042769,0.5948 1.050589,-1.26108 1.536713,-2.97796 2.645833,-4.81935 0.818711,-1.35924 1.107821,-1.38285 3.095418,-3.61631 1.150573,-1.2929 1.837754,-1.72709 5.457548,-2.38074 1.866249,-0.33701 4.439369,-0.51895 6.176885,0.39895 1.620364,0.856 3.73185,1.58324 5.208466,2.66857 1.258284,0.92486 2.37875,1.8484 3.118157,3.49642 0.28975,0.64581 1.13498,1.08741 1.133779,1.79524 -7.01e-4,0.41068 -0.279585,0.88861 -0.661458,1.03973 -1.299946,0.51442 -2.669659,-0.92292 -4.062799,-1.03973 -1.511842,-0.12676 -3.044605,0.10078 -4.536159,0.37828 -1.322896,0.2461 -2.661254,0.55117 -3.87418,1.13378 -1.068533,0.51324 -1.809047,1.2075 -2.913002,2.03967 -1.126789,0.84937 1.129131,1.28364 1.129131,1.28364 1.096324,0.18919 2.159259,-0.0792 3.295922,-0.48834 1.062376,-0.38241 2.015022,-1.08214 3.118157,-1.32292 1.07751,-0.23519 2.485115,-0.82967 3.307292,-0.0946 0.282747,0.2528 0.225022,0.77764 0.09457,1.13378 -0.337071,0.9202 -1.610622,1.2181 -2.078942,2.07894 -0.646555,1.18846 -0.934138,2.61841 -0.850078,3.96875 0.05206,0.83636 0.129842,2.8279 0.827339,2.37402 1.130798,-0.73584 1.755204,-2.03677 2.92902,-3.30729 0.598871,-0.64821 0.326969,-1.98009 0.495578,-2.84634 0.140874,-0.72377 0.184438,-1.61314 0.756025,-2.07894 0.603729,-0.492 1.466218,-0.63442 2.312003,-0.339 1.391619,0.48608 2.832659,1.65782 3.256651,3.18534 0.551791,1.98793 -0.576366,3.7508 -1.244886,5.68595 -1.429686,4.13847 -3.73571,8.12605 -4.913913,12.07885 -0.669261,2.24533 -4.333915,4.57694 -6.685896,6.98097 -4.081312,4.17164 -8.386239,8.14149 -12.189955,12.56771 -3.325786,3.87008 -6.18318,8.11945 -9.260416,12.18995 -2.590909,3.4272 -6.022332,6.36526 -7.748363,10.29963 -1.119375,2.55154 -4.292552,8.40064 -1.512054,8.22121 0,0 3.498099,-4.39817 5.197618,-6.504 3.507396,-4.34593 6.915242,-8.45622 10.315649,-12.93409 2.643312,-3.48088 5.048236,-7.22726 7.893574,-10.59987 3.418268,-4.05171 7.368987,-7.5146 11.272697,-11.35073 1.753486,-1.72313 3.387285,-3.52922 5.946407,-4.36253 1.587643,-0.51698 4.060671,-0.78431 5.676138,-0.36225 1.454189,0.37992 2.911739,1.07839 3.890719,2.27945 1.303586,1.5993 1.773949,3.67955 1.86242,5.78053 0.110972,2.63543 -0.741645,4.50507 -1.606621,7.54785 -0.50247,1.76757 -1.185262,3.7124 -2.784327,4.90255 -1.60325,1.19326 -2.430661,2.24814 -3.314009,3.99148 -0.851223,1.67995 3.837257,0.32041 6.109705,-1.91771 1.481976,-1.45959 2.646222,-3.31944 3.307292,-5.29166 0.623074,-1.85887 -0.691388,-4.32256 0.518314,-5.85856 0.41662,-0.52899 0.54569,-0.59547 1.18288,-0.37775 0.78897,0.26956 1.28484,1.28823 1.65674,1.87378 1.34884,2.12373 2.43043,4.03562 3.23391,6.81974 0.37228,1.28993 1.97852,1.81523 2.91301,1.59008 0.7308,-0.17607 0.76093,-1.56075 0.46095,-2.15697 -1.45015,-2.88228 -4.49173,-6.80059 -5.67924,-10.70012 -1.26219,-4.1448 -3.25387,-7.52052 -2.77451,-8.00985 0,0 3.95886,0.75762 5.76399,1.60611 3.74819,1.76178 6.99117,4.47583 10.20558,7.08742 3.32321,2.69999 6.53634,5.4939 9.33173,8.82685 3.30847,3.94471 6.93352,9.38588 8.52764,13.00127 0.86596,1.96394 1.36906,3.82574 2.94039,4.00751 0.44666,0.0517 0.56503,-0.26107 0.80977,-1.02784 0.48158,-1.5088 -0.16157,-3.25518 -0.86506,-4.67414 -1.65927,-3.34679 -2.86022,-6.46799 -5.38572,-9.82731 -1.2186,-1.6209 -3.11145,-2.9482 -4.49223,-5.10924 -0.15636,-0.24471 0.32076,-0.81557 0.56689,-0.66146 1.64596,1.03056 2.70605,2.41422 4.15789,3.49643 1.14871,0.85624 2.26551,1.81825 3.59099,2.36212 5.27131,2.16292 7.54737,3.70705 10.29963,6.33088 1.23397,1.1764 2.32387,2.30631 3.77961,3.44579 0.97871,0.76608 3.68557,0.90124 3.68557,0.90124 0,-1e-5 0.16053,-2.11443 -0.28371,-3.02411 -0.98757,-2.02225 -3.19153,-3.18108 -4.91339,-4.63021 -1.80743,-1.52115 -3.91893,-2.66616 -5.66994,-4.25193 -0.9205,-0.83363 -1.52192,-1.9764 -2.51871,-2.74506 -2.47754,-1.91052 -5.53929,-2.04173 -8.44238,-3.20807 -3.17625,-1.27608 -6.31477,-2.73593 -9.16585,-4.63021 -1.61916,-1.07579 -3.89765,-1.91329 -4.44159,-3.77961 -0.11987,-0.41131 0.03,-0.97937 0.37828,-1.22887 1.76749,-1.26627 4.36162,-0.0732 6.52001,0.18914 3.55094,0.43162 6.63832,1.59811 10.48877,2.26808 5.98893,1.04206 10.53759,3.2075 15.11897,4.25193 3.57421,0.81483 6.67874,1.85912 9.94513,3.74086 2.38274,1.37267 3.97588,2.42661 6.19756,3.36259 1.36584,0.57543 2.34896,1.43943 3.98941,1.5508 0,0 2.50573,0.32012 1.73995,-1.01647 -0.76635,-1.33758 -3.47166,-2.53941 -5.43016,-3.57446 -2.04262,-1.07951 -4.39491,-1.94603 -6.50348,-2.89026 -1.05702,-0.47334 -3.10713,-0.3094 -2.94556,-1.45624 0.11938,-0.84731 1.69748,-0.22691 2.55127,-0.28371 1.41463,-0.0941 2.84355,-0.25731 4.25194,-0.0946 4.13606,0.47795 8.13849,1.82313 12.09538,3.11867 2.41802,0.79169 4.67148,1.42603 7.08691,2.83445 1.41519,0.82518 4.06332,2.83497 4.06332,2.83497 1.4953,1.29818 3.11867,0.0946 3.11867,0.0946 1.31554,-0.70476 -2.45767,-3.87649 -3.68556,-4.72478 -2.31863,-1.60184 -4.16348,-2.32184 -6.80372,-3.30729 -3.25087,-1.21337 -6.61738,-2.13477 -10.01593,-2.83497 -3.08037,-0.63465 -6.21661,-1.02318 -9.35498,-1.22835 -1.54012,-0.10069 -3.10862,0.25859 -4.63021,0 -0.658,-0.11182 -1.93781,0.004 -1.88981,-0.66146 0.0946,-1.31237 2.5603,-0.68532 3.87418,-0.75602 3.69337,-0.19859 7.36155,0.76081 11.05566,0.94516 2.17953,0.10877 5.38623,0.75603 5.38623,0.75603 0.48423,0.0679 0.0658,-1.2129 -0.37827,-1.41749 -1.85311,-0.85364 -2.94886,-0.69191 -4.44107,-0.94516 -3.44349,-0.58442 -6.90214,-1.25462 -10.3942,-1.32292 -1.80194,-0.0352 -3.58594,0.38814 -5.38623,0.47284 -4.81397,0.2265 -9.6563,0.51116 -14.45752,0.0941 -2.8067,-0.24383 -5.52597,-1.11907 -8.31577,-1.51153 -1.88079,-0.26459 -3.8388,-0.0607 -5.66942,-0.56689 -0.57039,-0.15771 -1.32331,-0.23646 -1.60662,-0.75603 -0.22818,-0.41848 -0.11456,-1.05011 0.18914,-1.41748 0.31732,-0.38387 0.92904,-0.37503 1.41748,-0.47233 2.60151,-0.51797 5.28572,-0.50231 7.9375,-0.5674 2.83467,-0.0696 5.66957,0.12613 8.50439,0.18913 0.13428,0.003 3.03539,0.40451 4.63021,0.8506 0,-1e-5 2.66113,0.1675 3.0241,-0.28371 0.34078,-0.42367 0.55766,-1.13672 0.28319,-1.6061 -0.62354,-1.06634 -2.38538,-0.68849 -3.49643,-1.22835 -0.73877,-0.35897 -2.10732,-0.50206 -2.07842,-1.32292 0.0302,-0.85919 1.44444,-0.98066 2.26756,-1.22886 2.02859,-0.61167 4.21335,-0.51009 6.3314,-0.56689 2.64657,-0.071 5.31658,-0.0907 7.9375,0.2837 2.41247,0.34466 4.70469,1.28148 7.0869,1.79524 1.75152,0.37774 5.29167,0.94516 5.29167,0.94516 0.59644,0.10651 0.55262,-1.25308 0.28318,-1.79575 -0.65177,-1.31269 -2.53067,-1.49282 -3.87418,-2.07843 -3.47896,-1.51642 -7.02473,-3.08469 -10.77195,-3.68556 -2.67484,-0.42892 -5.45454,-0.35112 -8.12664,0.0946 -3.46818,0.57848 -6.62229,2.38936 -10.01644,3.3073 -1.93255,0.52265 -4.76958,1.87891 -3.49642,0.85059 l 2.45721,-1.98437 c 2.13549,-1.72482 2.69679,-2.26802 4.25194,-4.44159 2.63384,-3.68123 5.1971,-7.27604 5.1971,-7.27604 l 1.32291,3.49642 c 0.32403,0.85636 1.90784,0.57018 2.7404,0.18914 0.42961,-0.19662 0.7717,-0.66794 0.8506,-1.13378 0.12139,-0.71698 -0.19833,-1.38756 -0.66146,-2.07895 -0.62421,-0.93185 -2.64584,-2.7404 -2.64584,-2.7404 0,0 2.06177,-1.15836 1.88981,-2.07894 -0.0905,-0.48464 -1.32292,-0.66146 -1.32292,-0.66146 -0.86421,-0.43211 -2.7404,0.94516 -2.7404,0.94516 -0.64321,0.2218 -1.23343,-0.55383 -1.79524,-0.94516 -0.55494,-0.38655 -3.52612,-2.06138 -5.4808,-2.55126 -2.50063,-0.62671 -5.95312,-1.70119 -5.95312,-1.70119 -1.43915,-0.41119 3.03898,-1.14948 4.53564,-1.13378 2.81165,0.0295 5.60527,0.70764 8.31577,1.41748 4.17623,1.0937 8.23139,2.21348 12.09487,4.44107 2.67498,1.54233 6.11281,2.82547 9.26041,3.40186 1.48718,0.27233 2.10081,0.93538 4.72478,0.47233 l 3.21272,-0.56689 c 3.76877,-0.66508 -6.37072,-3.34744 -9.63817,-5.10254 -4.15382,-2.23121 -8.53603,-3.57363 -13.22916,-5.00796 -1.94402,-0.59414 -5.08868,-0.16976 -6.42545,-1.70119 -0.24942,-0.28574 -0.47281,-1.10558 -0.0946,-1.13378 2.56633,-0.19117 3.50281,-1.39236 4.91339,-1.51205 3.98394,-0.33804 6.83878,-0.0962 10.67791,-0.66146 2.40352,-0.35391 5.09499,-0.31058 7.08742,-1.70067 0.37256,-0.25993 0.87803,-0.69686 0.75551,-1.1343 -0.14062,-0.50206 -0.90016,-0.59255 -1.41697,-0.66145 -2.37656,-0.31676 -3.75947,0.68145 -7.08742,1.22886 -3.174,0.52206 -6.51372,-0.13948 -9.63817,0.47232 -20.48228,4.01066 -16.89384,2.42006 -20.19877,3.16002 -2.36423,0.52934 -7.78723,1.89914 -9.28367,1.37562 0,0 5.99469,-7.5943 9.44955,-10.96108 4.51096,-4.39596 8.65941,-8.84013 13.1346,-13.32374 1.37041,-1.37299 2.12232,-2.24104 4.91391,-3.11867 1.0534,-0.33117 2.2723,-0.57347 3.30729,-0.18862 7.32522,2.7238 7.56005,7.63639 17.19792,12.85089 1.08609,0.58763 3.0211,0.66344 3.68505,-0.37775 0.46596,-0.7307 -0.32709,-1.76567 -0.85008,-2.4567 -2.59435,-3.42792 -8.09109,-4.49737 -10.58333,-7.37061 -0.99067,-1.14211 3.23725,-0.2555 4.53564,0 3.77817,0.74349 6.6632,2.09255 10.01644,4.53564 2.16595,1.57806 4.8552,1.90892 7.37009,2.92902 2.61437,1.06046 -0.26506,-4.50951 -3.49591,-6.14174 -2.93901,-1.4848 -7.64217,-2.02472 -12.94598,-4.44159 -4.04729,-1.84429 -7.78778,-0.59092 -9.44903,-2.26756 -1.34164,-1.35407 4.0372,-3.39779 6.52001,-3.87418 5.09058,-0.97676 9.51197,-0.37121 14.83527,-1.98438 0.91535,-0.27738 2.99293,-2.36391 0.8506,-2.7404 -2.41104,-0.42372 -11.37585,1.30783 -17.19792,2.4567 -3.93526,0.77655 -11.75819,5.99516 -12.09539,3.11815 -0.33417,-2.8511 13.63561,-16.60131 25.98601,-24.09568 1.17624,-0.71376 2.07184,-3.09652 0.8506,-3.68557 -3.77953,-1.823004 -9.08756,6.25838 -11.5285,7.27605 0,0 7.82901,-11.943287 10.6779,-18.709456 1.0133,-2.406594 0.96478,-5.807905 2.53318,-7.935949 0.99658,-1.352182 0.31914,-2.041022 -0.70125,-2.021583 z m -69.36165,62.228758 c 0,0 1.08771,0.91473 1.60352,1.40302 0.97223,0.92035 1.78209,2.01136 2.80654,2.8732 1.38514,1.1653 3.18745,1.80318 4.47673,3.07372 0.46657,0.45979 0.81061,1.03491 1.13585,1.60352 0.48506,0.84802 0.99749,1.71751 1.20251,2.6727 0.18696,0.87107 -0.34454,2.7538 -0.86868,3.47421 -3.0148,4.14376 -11.0927,11.05125 -16.90491,16.5039 -5.24479,4.92033 -13.620081,12.49985 -16.035714,14.43271 -1.832999,1.46667 2.087912,-6.46622 3.340881,-9.62163 1.405461,-3.53943 2.593768,-7.01327 4.743897,-10.15649 1.218213,-1.78087 3.284996,-3.79141 5.078246,-5.07772 1.87983,-1.34842 3.71074,-2.07547 5.7459,-2.60605 1.53565,-0.40035 3.18344,-0.11485 4.74441,-0.401 0.95693,-0.17543 2.13453,-0.0981 2.80603,-0.80202 0.26827,-0.28146 0.46254,-0.7995 0.26717,-1.13585 -0.51324,-0.88362 -2.8566,-0.58678 -3.87521,-0.66818 -1.56693,-0.12515 -2.50287,0.20524 -3.7419,0.40101 -1.39363,0.2202 -2.76687,1.18279 -4.14238,0.86868 -0.35613,-0.0813 -1.40609,-0.0302 -1.20303,-0.33383 0,0 1.78323,-1.57982 2.4722,-2.53938 1.19679,-1.66682 1.95894,-3.61001 2.80655,-5.47873 0.77221,-1.70249 1.38995,-3.47121 2.07119,-5.21209 0.66648,-1.70315 1.4702,-3.2737 1.4702,-3.2737 z m 8.86716,24.26208 c 1.17137,-0.009 2.85208,1.00066 3.89485,1.1281 2.52379,0.30845 4.57114,-0.15712 6.8156,0.20051 2.17839,0.34711 4.27009,1.12919 6.34742,1.8712 2.04908,0.73192 4.04551,1.61091 6.01359,2.53886 1.0002,0.47159 2.93987,1.53686 2.93987,1.53686 0,0 -2.52982,2.37455 -3.67471,3.67471 -1.56336,1.77538 -2.74013,3.87368 -4.34341,5.61309 -1.88054,2.04022 -3.86485,4.03426 -6.14691,5.61258 -2.50684,1.73378 -5.19856,3.38892 -8.15196,4.14239 -0.73408,0.18728 -2.41293,0.81148 -2.27169,0.0672 0.31731,-1.67222 2.22031,-2.59147 3.47472,-3.74189 1.60235,-1.46951 3.3486,-2.78421 5.14491,-4.00905 1.15507,-0.7876 2.53204,-1.28052 3.60805,-2.13837 0.38668,-0.30828 -0.13079,-0.9174 -0.53485,-1.20251 -0.7995,-0.56411 -1.72013,0.0922 -2.53887,0.33383 -1.39506,0.4117 -2.75033,1.03772 -3.94239,1.8712 -1.58761,1.11005 -2.80471,2.67454 -4.14239,4.07572 -1.19804,1.25491 -2.17245,2.72884 -3.47472,3.87521 -1.17786,1.03687 -2.42438,2.07477 -3.87521,2.67271 -1.45946,0.60149 -5.47532,0.89645 -6.96599,0.98805 -0.0262,0.006 -0.0478,0.0116 -0.11679,0.0145 -0.74955,0.031 -0.52959,0.0252 0.11679,-0.0145 0.56162,-0.11982 -8.34842,-0.83664 -12.077296,-0.85421 -4.397256,-0.0207 -7.68377,-0.26717 -7.68377,-0.26717 0,0 3.359671,-4.02375 7.68377,-7.68428 8.327886,-7.0499 16.176776,-15.458 23.185666,-20.11195 0.20196,-0.1341 0.4454,-0.1906 0.71572,-0.19276 z"
       inkscape:connector-curvature="0" />
  </g>
</svg>
